<?xml version="1.0" encoding="UTF-8"?>
<svg xmlns="http://www.w3.org/2000/svg" xmlns:xlink="http://www.w3.org/1999/xlink" width="48pt" height="48pt" viewBox="0 0 48 48" version="1.1">
<g id="surface1">
<path style=" stroke:none;fill-rule:evenodd;fill:rgb(16.862745%,18.039216%,22.745098%);fill-opacity:1;" d="M 48 24 C 48 37.253906 37.253906 48 24 48 C 10.746094 48 0 37.253906 0 24 C 0 10.746094 10.746094 0 24 0 C 37.253906 0 48 10.746094 48 24 Z M 48 24 "/>
<path style=" stroke:none;fill-rule:nonzero;fill:rgb(62.352941%,91.764706%,97.647059%);fill-opacity:1;" d="M 18.84375 13.441406 C 13.96875 12.554688 10.113281 13.484375 8.578125 16.144531 C 7.429688 18.128906 7.757812 20.765625 9.371094 23.578125 C 9.457031 23.738281 9.625 23.835938 9.804688 23.839844 C 9.988281 23.839844 10.15625 23.746094 10.246094 23.585938 C 10.335938 23.429688 10.332031 23.234375 10.238281 23.082031 C 8.785156 20.546875 8.503906 18.273438 9.441406 16.644531 C 10.71875 14.433594 14.15625 13.605469 18.664062 14.425781 C 18.933594 14.46875 19.191406 14.289062 19.238281 14.023438 C 19.289062 13.753906 19.113281 13.496094 18.84375 13.441406 Z M 11.90625 27 C 13.878906 29.164062 16.441406 31.199219 19.359375 32.882812 C 26.433594 36.96875 33.964844 38.058594 37.675781 35.53125 C 37.828125 35.429688 37.910156 35.257812 37.898438 35.078125 C 37.886719 34.898438 37.777344 34.738281 37.613281 34.660156 C 37.453125 34.582031 37.257812 34.597656 37.113281 34.703125 C 33.789062 36.96875 26.636719 35.929688 19.859375 32.019531 C 17.027344 30.382812 14.546875 28.414062 12.648438 26.328125 C 12.527344 26.195312 12.34375 26.136719 12.167969 26.171875 C 11.996094 26.210938 11.851562 26.339844 11.796875 26.511719 C 11.746094 26.679688 11.785156 26.867188 11.90625 27 Z M 11.90625 27 "/>
<path style=" stroke:none;fill-rule:nonzero;fill:rgb(62.352941%,91.764706%,97.647059%);fill-opacity:1;" d="M 36.492188 26.390625 C 39.683594 22.621094 40.796875 18.824219 39.265625 16.171875 C 38.136719 14.214844 35.75 13.183594 32.582031 13.144531 C 32.308594 13.144531 32.085938 13.363281 32.082031 13.636719 C 32.078125 13.910156 32.296875 14.136719 32.570312 14.144531 C 35.417969 14.179688 37.476562 15.070312 38.398438 16.671875 C 39.671875 18.875 38.679688 22.257812 35.726562 25.746094 C 35.609375 25.882812 35.574219 26.070312 35.632812 26.238281 C 35.695312 26.410156 35.839844 26.535156 36.019531 26.566406 C 36.195312 26.597656 36.375 26.53125 36.492188 26.390625 Z M 28.285156 13.609375 C 25.398438 14.226562 22.328125 15.4375 19.375 17.140625 C 12.074219 21.355469 7.3125 27.570312 7.972656 32.078125 C 7.996094 32.257812 8.113281 32.410156 8.28125 32.476562 C 8.449219 32.542969 8.640625 32.515625 8.78125 32.402344 C 8.921875 32.289062 8.992188 32.113281 8.960938 31.933594 C 8.375 27.933594 12.890625 22.039062 19.875 18.007812 C 22.738281 16.351562 25.714844 15.183594 28.496094 14.585938 C 28.671875 14.550781 28.816406 14.421875 28.875 14.25 C 28.929688 14.082031 28.890625 13.890625 28.769531 13.757812 C 28.644531 13.625 28.460938 13.566406 28.285156 13.609375 Z M 28.285156 13.609375 "/>
<path style=" stroke:none;fill-rule:nonzero;fill:rgb(62.352941%,91.764706%,97.647059%);fill-opacity:1;" d="M 16.457031 35.203125 C 18.125 39.863281 20.855469 42.734375 23.929688 42.734375 C 26.167969 42.734375 28.238281 41.207031 29.855469 38.519531 C 29.949219 38.367188 29.957031 38.175781 29.871094 38.015625 C 29.78125 37.859375 29.617188 37.757812 29.4375 37.757812 C 29.257812 37.753906 29.089844 37.847656 29 38.003906 C 27.546875 40.421875 25.761719 41.734375 23.929688 41.734375 C 21.378906 41.734375 18.941406 39.175781 17.398438 34.867188 C 17.339844 34.695312 17.195312 34.566406 17.015625 34.535156 C 16.839844 34.5 16.65625 34.566406 16.539062 34.703125 C 16.425781 34.84375 16.390625 35.035156 16.457031 35.203125 Z M 31.703125 34.292969 C 32.570312 31.53125 33.03125 28.34375 33.03125 25.023438 C 33.03125 16.742188 30.132812 9.601562 26.003906 7.765625 C 25.753906 7.660156 25.464844 7.777344 25.355469 8.027344 C 25.242188 8.273438 25.351562 8.566406 25.597656 8.679688 C 29.28125 10.316406 32.03125 17.09375 32.03125 25.023438 C 32.03125 28.246094 31.582031 31.332031 30.75 33.992188 C 30.695312 34.164062 30.734375 34.351562 30.855469 34.484375 C 30.976562 34.621094 31.160156 34.675781 31.335938 34.636719 C 31.511719 34.597656 31.652344 34.464844 31.703125 34.292969 Z M 41.121094 33.800781 C 41.121094 32.480469 40.050781 31.410156 38.730469 31.410156 C 37.40625 31.410156 36.335938 32.480469 36.335938 33.800781 C 36.335938 35.125 37.40625 36.195312 38.730469 36.195312 C 40.050781 36.195312 41.121094 35.125 41.121094 33.800781 Z M 40.121094 33.800781 C 40.121094 34.570312 39.5 35.195312 38.730469 35.195312 C 37.960938 35.195312 37.335938 34.570312 37.335938 33.800781 C 37.335938 33.03125 37.960938 32.410156 38.730469 32.410156 C 39.5 32.410156 40.121094 33.03125 40.121094 33.800781 Z M 9.09375 36.195312 C 10.414062 36.195312 11.488281 35.125 11.488281 33.800781 C 11.488281 32.480469 10.414062 31.410156 9.09375 31.410156 C 7.773438 31.410156 6.699219 32.480469 6.699219 33.800781 C 6.699219 35.125 7.773438 36.195312 9.09375 36.195312 Z M 9.09375 35.195312 C 8.324219 35.195312 7.699219 34.570312 7.699219 33.800781 C 7.699219 33.03125 8.324219 32.410156 9.09375 32.410156 C 9.863281 32.410156 10.484375 33.03125 10.484375 33.800781 C 10.484375 34.570312 9.863281 35.195312 9.09375 35.195312 Z M 9.09375 35.195312 "/>
<path style=" stroke:none;fill-rule:nonzero;fill:rgb(62.352941%,91.764706%,97.647059%);fill-opacity:1;" d="M 23.929688 10.207031 C 25.25 10.207031 26.320312 9.136719 26.320312 7.816406 C 26.320312 6.492188 25.25 5.421875 23.929688 5.421875 C 22.605469 5.421875 21.535156 6.492188 21.535156 7.816406 C 21.535156 9.136719 22.605469 10.207031 23.929688 10.207031 Z M 23.929688 9.207031 C 23.160156 9.207031 22.535156 8.585938 22.535156 7.816406 C 22.535156 7.046875 23.160156 6.421875 23.929688 6.421875 C 24.699219 6.421875 25.320312 7.046875 25.320312 7.816406 C 25.320312 8.585938 24.699219 9.207031 23.929688 9.207031 Z M 24.292969 26.71875 C 23.359375 26.917969 22.4375 26.324219 22.234375 25.390625 C 22.035156 24.457031 22.628906 23.535156 23.5625 23.332031 C 24.496094 23.128906 25.417969 23.726562 25.621094 24.660156 C 25.824219 25.59375 25.226562 26.515625 24.292969 26.71875 Z M 24.292969 26.71875 "/>
</g>
</svg>
